<svg width="114" height="12" viewBox="0 0 114 12" fill="none" xmlns="http://www.w3.org/2000/svg">
<path d="M2.81297 9.95031C2.759 8.22347 3.73035 6.65851 5.18737 5.84906C7.0761 4.76978 9.45052 5.52527 11.2853 6.33473C13.4438 7.25212 15.4945 8.38536 17.7609 8.81707C20.0814 9.24878 22.2399 8.92499 24.1287 7.52194C24.7762 7.03626 25.4238 6.44266 26.2333 6.3887C26.2872 6.3887 26.557 6.44266 26.665 6.49662C27.0427 6.71248 27.0427 6.71248 27.3665 6.9823C28.4458 7.95365 29.2013 9.24878 30.3345 10.1662C31.7915 11.3534 33.5723 11.6771 35.3531 10.8677C36.9181 10.1662 37.9974 8.70914 39.4544 7.89968C40.6956 7.19815 41.8828 7.46797 43.1239 8.06157C44.6349 8.7631 45.984 9.73445 47.495 10.4899C49.1139 11.2454 50.7868 11.7311 52.5676 11.2994C53.5389 11.0835 54.4563 10.5439 55.3197 9.95031C56.0752 9.46463 56.8307 8.87103 57.6942 8.65518C59.1512 8.27743 60.6082 9.46463 61.8494 10.2741C63.4143 11.2454 65.2491 11.947 67.0839 11.3534C68.8647 10.7598 69.89 9.19481 71.4549 8.22347C73.0738 7.19815 74.9086 8.06157 76.5815 8.54725C77.6068 8.87103 78.6861 9.14085 79.7653 9.14085C80.8986 9.14085 81.9779 8.7631 83.0572 8.33139C84.1364 7.89968 85.2157 7.46797 86.3489 7.30608C87.5901 7.14419 88.8313 7.19815 90.0724 7.19815C95.4149 7.14419 100.757 7.09023 106.046 7.03626C107.341 7.03626 108.636 6.9823 109.931 6.9823C111.658 6.9823 111.658 4.28411 109.931 4.28411C104.535 4.33807 99.0844 4.39203 93.688 4.446C91.0978 4.49996 88.3996 4.33807 85.8093 4.66185C84.5681 4.82375 83.4349 5.25546 82.3016 5.74113C81.3303 6.17284 80.359 6.49662 79.2797 6.3887C77.1751 6.17284 75.3403 4.98564 73.1818 4.98564C71.0232 4.98564 69.5122 6.2268 67.9473 7.62986C67.4076 8.11554 66.7601 8.65518 66.0586 8.81707C65.411 8.97896 64.8174 8.7631 64.2238 8.49328C62.6049 7.68383 61.2558 6.44266 59.475 6.06491C57.2624 5.57924 55.5356 6.65851 53.7548 7.79175C53.377 8.00761 52.9993 8.27743 52.5676 8.43932C52.2438 8.60121 51.7581 8.70914 51.5423 8.70914C50.7868 8.7631 50.2471 8.65518 49.4377 8.33139C46.3618 7.19815 43.6636 4.28411 39.994 4.82375C38.1053 5.09356 36.7562 6.44266 35.3531 7.5759C34.8135 8.00761 34.2199 8.49328 33.5184 8.54725C33.3025 8.60121 33.0867 8.54725 32.8168 8.49328C32.655 8.43932 32.3851 8.33139 32.1153 8.11554C32.2232 8.22347 31.8995 7.89968 31.8455 7.84572C31.7376 7.73779 31.5757 7.62986 31.4678 7.46797C31.1979 7.19815 30.9821 6.92833 30.7123 6.60455C30.2266 6.06491 29.7949 5.47131 29.2552 4.93167C27.8522 3.58258 26.0174 3.15087 24.2366 4.01429C23.3192 4.446 22.6177 5.20149 21.7003 5.68717C20.8369 6.17284 19.8116 6.2268 18.8402 6.11888C16.5737 5.84906 14.5231 4.66185 12.4725 3.79843C10.206 2.82708 7.66971 2.07159 5.18737 2.77312C3.19071 3.31276 1.46387 4.82375 0.654414 6.71248C0.222704 7.68383 -0.0471217 8.70914 0.00684208 9.78842C0.11477 11.6771 2.81297 11.6771 2.81297 9.95031Z" fill="#F23153"/>
<path d="M103.725 3.04295C106.639 3.90638 109.392 5.20151 111.928 6.82042C111.928 6.06493 111.928 5.25547 111.928 4.49998C108.528 6.11889 105.074 7.57591 101.567 8.87105C100.865 9.14087 100.434 9.78843 100.649 10.5439C100.811 11.1915 101.621 11.7311 102.322 11.4613C106.1 10.1122 109.769 8.54726 113.331 6.82042C114.302 6.33475 114.14 4.98565 113.331 4.49998C110.579 2.71917 107.611 1.37008 104.481 0.452691C102.754 -0.0329828 102.052 2.55728 103.725 3.04295Z" fill="#F23153"/>
</svg>
