<svg width="16" height="16" viewBox="0 0 16 16" fill="none" xmlns="http://www.w3.org/2000/svg">
<path fill-rule="evenodd" clip-rule="evenodd" d="M10 4H11.3334V5.33333H10V4ZM8.66669 6.66667V5.33333H10V6.66667H8.66669ZM7.33335 8V6.66667H8.66669V8H7.33335ZM6.00002 9.33333V8H7.33335L7.33335 9.33333H6.00002ZM4.66669 10.6667V9.33333H6.00002V10.6667L4.66669 10.6667ZM3.33335 10.6667L4.66669 10.6667V12H3.33335L3.33335 10.6667ZM2.00002 9.33333H3.33335V10.6667H2.00002V9.33333ZM2.00002 9.33333H0.666687V8H2.00002V9.33333ZM7.33335 10.6667H8.66669V12H7.33335V10.6667ZM10 9.33333V10.6667L8.66669 10.6667L8.66669 9.33333H10ZM11.3334 8L11.3334 9.33333H10V8H11.3334ZM12.6667 6.66667V8H11.3334V6.66667H12.6667ZM14 5.33333H12.6667V6.66667H14V5.33333ZM14 5.33333H15.3334V4H14V5.33333Z" fill="#F23153"/>
</svg>
