<svg width="16" height="16" viewBox="0 0 16 16" fill="none" xmlns="http://www.w3.org/2000/svg">
<path fill-rule="evenodd" clip-rule="evenodd" d="M7.99998 0.666687H9.33331V6.00002H14.6666V7.33335V8.66669H13.3333V7.33335L9.33331 7.33335H7.99998V6.00002V3.33335L6.66665 3.33335V2.00002H7.99998V0.666687ZM5.33331 4.66669L5.33331 3.33335H6.66665V4.66669L5.33331 4.66669ZM3.99998 6.00002V4.66669H5.33331V6.00002H3.99998ZM2.66665 7.33335L2.66665 6.00002H3.99998V7.33335H2.66665ZM9.33331 12.6667V14H7.99998V15.3334H6.66665V10H1.33331V8.66669V7.33335H2.66665V8.66669L6.66665 8.66669H7.99998V10V12.6667L9.33331 12.6667ZM10.6666 11.3334V12.6667H9.33331V11.3334H10.6666ZM12 10V11.3334H10.6666V10H12ZM12 10H13.3333V8.66669L12 8.66669V10Z" fill="#F23153"/>
</svg>
