<svg width="16" height="16" viewBox="0 0 16 16" fill="none" xmlns="http://www.w3.org/2000/svg">
<g clip-path="url(#clip0_4_1351)">
<path fill-rule="evenodd" clip-rule="evenodd" d="M7.33333 1.33331H3.33333V2.66665L2.00016 2.66665V6.66665H3.33333V7.99998H7.33333V6.66665H3.3335V2.66665L7.33333 2.66665V1.33331ZM7.3335 2.66665H8.66683V6.66665H7.3335V2.66665ZM0 10.6666H1.33333V13.3333H9.33333V14.6666L1.33333 14.6666H0V10.6666ZM1.33333 10.6666L9.33333 10.6666V9.33331H1.33333V10.6666ZM10.6668 10.6666H9.3335V14.6666H10.6668V10.6666ZM10 1.33331H12.6667V2.66665H10V1.33331ZM12.6667 6.66665H10V7.99998H12.6667V6.66665ZM12.6668 2.66665H14.0002V6.66665H12.6668V2.66665ZM16.0002 10.6666H14.6668V13.3333L12 13.3333V14.6666H16V13.3333L16.0002 13.3333V10.6666ZM12 9.33331H14.6667V10.6666H12V9.33331Z" fill="#F23153"/>
</g>
<defs>
<clipPath id="clip0_4_1351">
<rect width="16" height="16" fill="white"/>
</clipPath>
</defs>
</svg>
